<?xml version="1.0" encoding="UTF-8"?>
<svg xmlns="http://www.w3.org/2000/svg" viewBox="0 0 111 25">
  <g transform="translate(61.7554,12.5) scale(0.067957) translate(0,-240)">
    <path fill="#F0EDE8" d="M-864.6,477.3h-31.5l91.2-248.4h31l91.2,248.4h-31.5l-74.2-209.1h-1.9l-74.2,209.1ZM-852.9,380.3h127.1v26.7h-127.1v-26.7Z"/>
    <path fill="#F0EDE8" d="M-237,477.3v-21.8L-103.1,255.7h-135.3v-26.7H-67.2v21.8l-133.9,199.9H-65.7v26.7h-171.2Z"/>
    <path fill="#F0EDE8" d="M100.2,229v248.4h-30.1v-248.4h30.1Z"/>
    <path fill="#F0EDE8" d="M245.7,477.3v-248.4h149.9v26.7h-119.8v83.9h112.1v26.7h-112.1v84.4h121.8v26.7h-151.8Z"/>
    <path fill="#F0EDE8" d="M535.3,477.3v-248.4h30.1v221.7h115.5v26.7h-145.5Z"/>
    <polygon fill="#FF2D9B" points="-350.6,167.4 -280.9,167.4 -441.1,351.4 -279.8,538.9 -351.7,538.9 -456.2,410 -560.7,538.9 -632.6,538.9 -473.6,351.4 -633.8,167.4 -566.5,167.4 -456.2,291.6 -350.6,167.4"/>
    <path fill="#FF2D9B" d="M-456.8,119.4c11.2,0,20.3,9.1,20.3,20.3s-2.9,12-7.5,15.8l-1-1c.3.4.7.7.9,1.1-3.5,2.8-7.9,4.5-12.7,4.5s-9.2-1.7-12.7-4.5c.3-.4.6-.7.9-1.1l-1,1c-4.6-3.8-7.5-9.4-7.5-15.8,0-11.2,9.1-20.3,20.3-20.3Z"/>
    <path fill="#FF2D9B" d="M-456.8,541.1c11.2,0,20.3,9.1,20.3,20.3s-2.9,12-7.5,15.8l-1-1c.3.4.7.7.9,1.1-3.5,2.8-7.9,4.5-12.7,4.5s-9.2-1.7-12.7-4.5c.3-.4.6-.7.9-1.1l-1,1c-4.6-3.8-7.5-9.4-7.5-15.8,0-11.2,9.1-20.3,20.3-20.3Z"/>
    <path fill="#FF2D9B" d="M-225.6,350.5c0,11.2-9.1,20.3-20.3,20.3s-12-2.9-15.8-7.5l1-1c-.4.3-.7.7-1.1.9-2.8-3.5-4.5-7.9-4.5-12.7s1.7-9.2,4.5-12.7c.4.3.7.6,1.1.9l-1-1c3.8-4.6,9.4-7.5,15.8-7.5,11.2,0,20.3,9.1,20.3,20.3Z"/>
    <path fill="#FF2D9B" d="M-647.4,350.5c0,11.2-9.1,20.3-20.3,20.3s-12-2.9-15.8-7.5l1-1c-.4.3-.7.7-1.1.9-2.8-3.5-4.5-7.9-4.5-12.7s1.7-9.2,4.5-12.7c.4.3.7.6,1.1.9l-1-1c3.8-4.6,9.4-7.5,15.8-7.5,11.2,0,20.3,9.1,20.3,20.3Z"/>
  </g>
</svg>
