<?xml version="1.0" encoding="UTF-8"?>
<svg xmlns="http://www.w3.org/2000/svg" viewBox="-5 -5 121 121">
  <g transform="translate(55.5,55.5) scale(0.2375) translate(430.5,1545)">
    <polygon fill="#FF2D9B" points="-316.2,-1742 -241.3,-1742 -413.6,-1544 -240,-1342.3 -317.5,-1342.3 -429.9,-1481 -542.3,-1342.3 -619.7,-1342.3 -448.6,-1544 -621,-1742 -548.5,-1742 -429.9,-1608.4 -316.2,-1742"/>
    <path fill="#FF2D9B" d="M-430.5,-1793.7c12,0,21.8,9.8,21.8,21.8s-3.1,12.9-8.1,16.9l-1.1-1.1c.4.4.7.8,1,1.2-3.7,3-8.5,4.8-13.7,4.8s-10-1.8-13.7-4.8c.3-.4.7-.8,1-1.2l-1.1,1.1c-4.9-4-8.1-10.1-8.1-16.9,0-12,9.8-21.8,21.8-21.8Z"/>
    <path fill="#FF2D9B" d="M-430.5,-1339.9c12,0,21.8,9.8,21.8,21.8s-3.1,12.9-8.1,16.9l-1.1-1.1c.4.4.7.8,1,1.2-3.7,3-8.5,4.8-13.7,4.8s-10-1.8-13.7-4.8c.3-.4.7-.8,1-1.2l-1.1,1.1c-4.9-4-8.1-10.1-8.1-16.9,0-12,9.8-21.8,21.8-21.8Z"/>
    <path fill="#FF2D9B" d="M-181.8,-1545c0,12-9.8,21.8-21.8,21.8s-12.9-3.1-16.9-8.1l1.1-1.1c-.4.4-.8.7-1.2,1-3-3.7-4.8-8.5-4.8-13.7s1.8-10,4.8-13.7c.4.3.8.7,1.2,1l-1.1-1.1c4-4.9,10.1-8.1,16.9-8.1,12,0,21.8,9.8,21.8,21.8Z"/>
    <path fill="#FF2D9B" d="M-635.6,-1545c0,12-9.8,21.8-21.8,21.8s-12.9-3.1-16.9-8.1l1.1-1.1c-.4.4-.8.7-1.2,1-3-3.7-4.8-8.5-4.8-13.7s1.8-10,4.8-13.7c.4.3.8.7,1.2,1l-1.1-1.1c4-4.9,10.1-8.1,16.9-8.1,12,0,21.8,9.8,21.8,21.8Z"/>
  </g>
</svg>
